<?xml version="1.0" encoding="utf-8"?>
<!-- Generator: Adobe Illustrator 24.0.1, SVG Export Plug-In . SVG Version: 6.00 Build 0)  -->
<svg version="1.1" xmlns="http://www.w3.org/2000/svg" xmlns:xlink="http://www.w3.org/1999/xlink" x="0px" y="0px"
	 viewBox="0 0 121 146" style="enable-background:new 0 0 121 146;" xml:space="preserve">
<style type="text/css">
	.st0{display:none;}
	.st1{display:inline;}
</style>
<g id="Camada_2">
	<path d="M96.57,23.78L62.06,38.71l-1.33,86.6l8.96-12.94l-0.33-51.43l17.92-8.3L96.57,23.78z M69.36,52.64l0.66-11.28l17.92-7.63
		l-3.32,12.28L69.36,52.64z"/>
	<path d="M32.86,52.77l17.92,8.3l-0.33,51.43l8.96,12.94l-1.33-86.6L23.57,23.9L32.86,52.77z M35.52,46.13L32.2,33.86l17.92,7.63
		l0.66,11.28L35.52,46.13z"/>
</g>
<g id="Camada_3" class="st0">
	<path class="st1" d="M-48,24l-34.51,14.93l-1.33,86.6l8.96-12.94l-0.33-51.43l17.92-8.3L-48,24z M-75.21,52.87l0.66-11.28
		l17.92-7.63l-3.32,12.28L-75.21,52.87z"/>
	<path class="st1" d="M-111.71,52.99l17.92,8.3l-0.33,51.43l8.96,12.94l-1.33-86.6L-121,24.12L-111.71,52.99z M-109.05,46.36
		l-3.32-12.28l17.92,7.63l0.66,11.28L-109.05,46.36z"/>
	<g class="st1">
		<path d="M-134.65,143.35v3.52c0,0.16,0.04,0.28,0.11,0.36s0.2,0.15,0.39,0.2v0.25h-3.33v-0.25c0.19-0.05,0.32-0.12,0.39-0.2
			c0.07-0.08,0.11-0.2,0.11-0.36v-9.03c0-0.16-0.04-0.28-0.11-0.37c-0.07-0.08-0.2-0.15-0.39-0.2v-0.25h6.66
			c0.78,0,1.39,0.05,1.85,0.16c0.46,0.1,0.86,0.28,1.21,0.54c0.36,0.27,0.64,0.61,0.84,1.05c0.2,0.45,0.3,0.92,0.3,1.42
			c0,0.72-0.19,1.35-0.58,1.89c-0.33,0.46-0.77,0.79-1.32,0.99s-1.32,0.29-2.3,0.29H-134.65z M-134.65,141.59h3.55
			c0.71,0,1.21-0.08,1.49-0.23c0.18-0.1,0.33-0.26,0.44-0.47c0.11-0.22,0.17-0.45,0.17-0.71c0-0.25-0.06-0.49-0.17-0.71
			c-0.11-0.22-0.26-0.37-0.44-0.47c-0.28-0.15-0.78-0.23-1.49-0.23h-3.55V141.59z"/>
		<path d="M-120.62,138.74c1.39,0,2.55,0.35,3.48,1.06c1.11,0.85,1.67,2.04,1.67,3.57c0,1.43-0.55,2.58-1.67,3.43
			c-0.92,0.71-2.07,1.06-3.46,1.06s-2.55-0.35-3.46-1.06c-1.12-0.85-1.67-2.02-1.67-3.5c0-1.49,0.56-2.66,1.67-3.5
			C-123.15,139.11-122,138.76-120.62,138.74z M-120.61,140.4c-0.9,0-1.64,0.29-2.21,0.87c-0.53,0.54-0.79,1.22-0.79,2.04
			c0,0.81,0.26,1.49,0.79,2.03c0.57,0.58,1.31,0.88,2.21,0.88c0.9,0,1.64-0.29,2.21-0.88c0.53-0.54,0.79-1.2,0.79-1.99
			c0-0.86-0.26-1.55-0.79-2.08C-118.97,140.7-119.71,140.41-120.61,140.4z"/>
		<path d="M-107.67,141.6l-1.92,4.76c-0.09,0.23-0.14,0.43-0.14,0.58c0,0.29,0.17,0.47,0.52,0.53v0.21h-3.26v-0.21
			c0.31-0.08,0.47-0.25,0.47-0.53c0-0.14-0.05-0.33-0.14-0.58l-2.31-5.97c-0.18-0.46-0.33-0.76-0.45-0.92
			c-0.12-0.15-0.31-0.26-0.55-0.32v-0.22h3.33v0.22c-0.32,0.1-0.48,0.27-0.48,0.49c0,0.11,0.05,0.3,0.16,0.56l1.65,4.13l1.63-4.1
			c0.1-0.24,0.15-0.43,0.15-0.56c0-0.26-0.17-0.43-0.52-0.52v-0.22h3.89v0.22c-0.34,0.11-0.51,0.29-0.51,0.55
			c0,0.11,0.04,0.28,0.13,0.51l1.6,4.13l1.6-4.17c0.07-0.18,0.1-0.34,0.1-0.48c0-0.15-0.04-0.26-0.11-0.34s-0.21-0.15-0.4-0.2v-0.22
			h3.41v0.22c-0.26,0.09-0.44,0.21-0.56,0.36c-0.12,0.14-0.26,0.44-0.44,0.89l-2.35,5.97c-0.08,0.21-0.13,0.4-0.13,0.56
			c0,0.3,0.18,0.48,0.53,0.55v0.21h-3.39v-0.21c0.33-0.09,0.5-0.28,0.5-0.57c0-0.07-0.06-0.25-0.17-0.54L-107.67,141.6z"/>
		<path d="M-96.41,143.96v2.13h5.55c0.16,0,0.29-0.04,0.37-0.11c0.09-0.07,0.16-0.2,0.21-0.39h0.22v2.59h-0.22
			c-0.05-0.18-0.11-0.31-0.2-0.39c-0.09-0.08-0.21-0.11-0.38-0.11H-99v-0.22c0.18-0.05,0.31-0.11,0.39-0.2
			c0.08-0.09,0.11-0.21,0.11-0.38v-7.16c0-0.16-0.04-0.28-0.11-0.37c-0.07-0.08-0.2-0.15-0.39-0.21v-0.22h7.91
			c0.17,0,0.29-0.04,0.38-0.11c0.09-0.07,0.16-0.2,0.21-0.39h0.21v2.59h-0.21c-0.05-0.19-0.12-0.32-0.21-0.39
			c-0.09-0.07-0.21-0.11-0.38-0.11h-5.31v1.92h3.3c0.16,0,0.29-0.04,0.37-0.11c0.09-0.07,0.16-0.2,0.21-0.39h0.21v2.52h-0.21
			c-0.05-0.18-0.12-0.31-0.21-0.39c-0.09-0.07-0.21-0.11-0.38-0.11H-96.41z"/>
		<path d="M-86.14,144.09v2.79c0,0.16,0.04,0.28,0.11,0.37c0.07,0.09,0.2,0.16,0.39,0.21v0.22h-3.09v-0.22
			c0.18-0.05,0.31-0.11,0.39-0.2c0.08-0.09,0.11-0.21,0.11-0.38v-7.16c0-0.16-0.04-0.28-0.11-0.37c-0.07-0.08-0.2-0.15-0.39-0.21
			v-0.22H-83c0.75,0,1.31,0.04,1.7,0.11c0.39,0.08,0.74,0.21,1.05,0.41c0.63,0.41,0.95,1.08,0.95,2.02c0,0.71-0.19,1.26-0.58,1.66
			s-1.01,0.69-1.88,0.86l1.66,2.31c0.3,0.43,0.54,0.72,0.72,0.87s0.38,0.25,0.61,0.29v0.22h-3.68v-0.22
			c0.27-0.07,0.41-0.19,0.41-0.35c0-0.11-0.08-0.29-0.25-0.52l-1.75-2.5H-86.14z M-86.14,142.5h3.16c0.48,0,0.83-0.05,1.06-0.16
			c0.32-0.14,0.48-0.42,0.48-0.84c0-0.37-0.11-0.63-0.34-0.77c-0.23-0.15-0.63-0.22-1.21-0.22h-3.16V142.5z"/>
		<path d="M-74.73,143.35v3.52c0,0.16,0.04,0.28,0.11,0.36s0.2,0.15,0.39,0.2v0.25h-3.33v-0.25c0.19-0.05,0.32-0.12,0.39-0.2
			c0.07-0.08,0.11-0.2,0.11-0.36v-9.03c0-0.16-0.04-0.28-0.11-0.37c-0.07-0.08-0.2-0.15-0.39-0.2v-0.25h6.66
			c0.78,0,1.39,0.05,1.85,0.16c0.46,0.1,0.86,0.28,1.21,0.54c0.36,0.27,0.64,0.61,0.84,1.05c0.2,0.45,0.3,0.92,0.3,1.42
			c0,0.72-0.19,1.35-0.58,1.89c-0.33,0.46-0.77,0.79-1.32,0.99s-1.32,0.29-2.3,0.29H-74.73z M-74.73,141.59h3.55
			c0.71,0,1.21-0.08,1.49-0.23c0.18-0.1,0.33-0.26,0.44-0.47c0.11-0.22,0.17-0.45,0.17-0.71c0-0.25-0.06-0.49-0.17-0.71
			c-0.11-0.22-0.26-0.37-0.44-0.47c-0.28-0.15-0.78-0.23-1.49-0.23h-3.55V141.59z"/>
		<path d="M-62.96,143.96v2.13h5.55c0.16,0,0.29-0.04,0.37-0.11c0.09-0.07,0.16-0.2,0.21-0.39h0.22v2.59h-0.22
			c-0.05-0.18-0.11-0.31-0.2-0.39c-0.09-0.08-0.21-0.11-0.38-0.11h-8.15v-0.22c0.18-0.05,0.31-0.11,0.39-0.2
			c0.08-0.09,0.11-0.21,0.11-0.38v-7.16c0-0.16-0.04-0.28-0.11-0.37c-0.07-0.08-0.2-0.15-0.39-0.21v-0.22h7.91
			c0.17,0,0.29-0.04,0.38-0.11c0.09-0.07,0.16-0.2,0.21-0.39h0.21v2.59h-0.21c-0.05-0.19-0.12-0.32-0.21-0.39
			c-0.09-0.07-0.21-0.11-0.38-0.11h-5.31v1.92h3.3c0.16,0,0.29-0.04,0.37-0.11c0.09-0.07,0.16-0.2,0.21-0.39h0.21v2.52h-0.21
			c-0.05-0.18-0.12-0.31-0.21-0.39c-0.09-0.07-0.21-0.11-0.38-0.11H-62.96z"/>
		<path d="M-54.79,146.88v-7.16c0-0.16-0.04-0.28-0.11-0.37c-0.07-0.08-0.2-0.15-0.39-0.21v-0.22h5.13c1.07,0,1.91,0.13,2.52,0.4
			c0.86,0.38,1.49,1,1.87,1.86c0.27,0.6,0.4,1.31,0.4,2.12c0,1.5-0.45,2.63-1.34,3.4c-0.4,0.34-0.87,0.59-1.42,0.75
			c-0.54,0.15-1.22,0.23-2.04,0.23h-5.13v-0.22c0.18-0.05,0.31-0.11,0.39-0.2C-54.83,147.17-54.79,147.05-54.79,146.88z
			 M-52.7,146.09h2.23c1.03,0,1.77-0.23,2.23-0.7c0.48-0.49,0.73-1.18,0.73-2.09c0-0.9-0.24-1.6-0.73-2.09
			c-0.24-0.24-0.54-0.42-0.89-0.54c-0.35-0.11-0.8-0.17-1.34-0.17h-2.23V146.09z"/>
		<path d="M-41.44,139.73v7.15c0,0.16,0.04,0.29,0.11,0.37c0.07,0.09,0.2,0.16,0.39,0.21v0.22h-3.09v-0.22
			c0.18-0.05,0.31-0.11,0.39-0.2c0.08-0.09,0.11-0.21,0.11-0.38v-7.16c0-0.16-0.04-0.28-0.11-0.37c-0.07-0.08-0.2-0.15-0.39-0.21
			v-0.22h3.09v0.22c-0.19,0.05-0.32,0.12-0.39,0.21S-41.44,139.57-41.44,139.73z"/>
		<path d="M-32.77,145.49h-4.02l-0.45,0.95c-0.11,0.23-0.16,0.41-0.16,0.54c0,0.25,0.17,0.41,0.5,0.48v0.22h-3.21v-0.22
			c0.2-0.03,0.34-0.09,0.44-0.18c0.1-0.09,0.21-0.26,0.34-0.52l3.2-6.47c0.12-0.24,0.18-0.46,0.18-0.64c0-0.21-0.15-0.38-0.44-0.5
			v-0.22h3.4v0.22c-0.29,0.11-0.43,0.29-0.43,0.53c0,0.17,0.07,0.38,0.2,0.63l3.31,6.27c0.18,0.34,0.33,0.56,0.43,0.66
			s0.26,0.17,0.48,0.21v0.22h-3.57v-0.22c0.34-0.06,0.51-0.22,0.51-0.47c0-0.16-0.07-0.36-0.2-0.6L-32.77,145.49z M-33.4,144.27
			l-1.43-2.81l-1.36,2.81H-33.4z"/>
	</g>
</g>
</svg>
